<?xml version="1.0" standalone="no"?><!DOCTYPE svg PUBLIC "-//W3C//DTD SVG 1.1//EN" "http://www.w3.org/Graphics/SVG/1.1/DTD/svg11.dtd"><svg t="1675844007253" class="icon" viewBox="0 0 1024 1024" version="1.1" xmlns="http://www.w3.org/2000/svg" p-id="1520" xmlns:xlink="http://www.w3.org/1999/xlink" width="200" height="200"><path d="M144 96h736A48 48 0 0 1 928 144v736a48 48 0 0 1-48 48h-736A48 48 0 0 1 96 880v-736A48 48 0 0 1 144 96z" fill="#FFFFFF" p-id="1521"></path><path d="M512 896a32 32 0 0 0 32 32H128a32 32 0 0 1-32-32V128a32 32 0 0 1 32-32h768a32 32 0 0 1 32 32v416a32 32 0 0 0-32-32V128H128v768h384z" fill="#5D6D7E" p-id="1522"></path><path d="M512 672v32h-160v192h-32v-192H128v-32h192v-160H128v-32h192v-160H128V288h192V128h32v160h320V128h32v160h192v32h-192v160h192v32H352v160h160z m-160-192h320v-160H352v160z" fill="#ACB4C0" p-id="1523"></path><path d="M320 96h384v832H320z" fill="#F0F0F0" fill-opacity=".5" p-id="1524"></path><path d="M704 512h-32V128H352v768h160a32 32 0 0 0 32 32h-224V96h384v416z" fill="#C49F74" p-id="1525"></path><path d="M576 544h320a32 32 0 0 1 32 32v320a32 32 0 0 1-32 32H576a32 32 0 0 1-32-32V576a32 32 0 0 1 32-32z m87.232 320v-230.016h-18.144c-4.896 9.92-13.216 20.128-24.992 30.656a169.856 169.856 0 0 1-41.28 26.88v27.168c8.768-3.2 18.656-8.064 29.632-14.528 11.008-6.464 19.872-12.928 26.656-19.392V864h28.128z m217.952-172.96c-2.304-17.824-9.184-31.776-20.704-41.888-11.52-10.112-26.272-15.168-44.288-15.168-24.16 0-43.392 8.768-57.664 26.24-16.352 20.16-24.544 52.32-24.544 96.576 0 39.584 7.424 68 22.208 85.248 14.784 17.248 33.92 25.856 57.344 25.856 13.76 0 26.048-3.264 36.864-9.856 10.848-6.56 19.36-16 25.568-28.352 6.176-12.352 9.28-25.696 9.28-40.064 0-21.888-6.592-39.712-19.776-53.536a63.776 63.776 0 0 0-47.872-20.704 65.184 65.184 0 0 0-55.616 30.464c0.192-22.912 2.848-40.544 7.968-52.96 5.12-12.384 12.064-21.824 20.928-28.256 6.752-5.024 14.624-7.52 23.584-7.52 11.136 0 20.512 4 28.16 12.032 4.544 4.992 8.096 13.024 10.592 24.064l27.968-2.176z m-114.848 98.752c0-14.816 4.448-26.752 13.28-35.84a43.392 43.392 0 0 1 32.352-13.696c12.8 0 23.424 4.544 31.872 13.664 8.448 9.12 12.672 21.6 12.672 37.44 0 16.448-4.288 29.44-12.8 39.04-8.576 9.6-18.784 14.4-30.656 14.4a43.2 43.2 0 0 1-23.264-6.976 45.984 45.984 0 0 1-17.28-20.224 65.248 65.248 0 0 1-6.176-27.84z" fill="#27A2DF" p-id="1526"></path></svg>